<?xml version="1.0" encoding="UTF-8" standalone="no"?>
<svg
   xmlns:dc="http://purl.org/dc/elements/1.1/"
   xmlns:cc="http://creativecommons.org/ns#"
   xmlns:rdf="http://www.w3.org/1999/02/22-rdf-syntax-ns#"
   xmlns:svg="http://www.w3.org/2000/svg"
   xmlns="http://www.w3.org/2000/svg"
   viewBox="0 0 368.88666 167.056"
   height="167.056"
   width="368.88666"
   xml:space="preserve"
   id="svg2"
   version="1.1"><metadata
     id="metadata8"><rdf:RDF><cc:Work
         rdf:about=""><dc:format>image/svg+xml</dc:format><dc:type
           rdf:resource="http://purl.org/dc/dcmitype/StillImage" /></cc:Work></rdf:RDF></metadata><defs
     id="defs6"><clipPath
       id="clipPath18"
       clipPathUnits="userSpaceOnUse"><path
         id="path16"
         d="M 0,125.292 H 276.665 V 0 H 0 Z" /></clipPath></defs><g
     transform="matrix(1.3333333,0,0,-1.3333333,0,167.056)"
     id="g10"><g
       id="g12"><g
         clip-path="url(#clipPath18)"
         id="g14"><g
           transform="translate(199.7424,111.0232)"
           id="g20"><path
             id="path22"
             style="fill:#004b26;fill-opacity:1;fill-rule:evenodd;stroke:none"
             d="M 0,0 C -1.641,-1.117 -3.831,-1.098 -5.503,0.008 Z M 6.775,-1.085 22.63,-1.108 23.591,-1.11 c 1.596,-0.013 3.251,0.474 4.172,1.137 1.216,0.875 2.025,2.284 2.025,3.922 0,2.458 -1.805,4.365 -4.045,4.785 L 6.587,8.739 C 8.272,5.707 8.381,2.004 6.775,-1.085 m -95.547,9.848 66.715,-0.017 -66.715,-51.477 z m -18.882,0.005 4.643,-8.75 v -46.294 l 8.748,0.211 V 8.764 Z m -16.674,0.003 7.296,-9.849 v -45.537 l 8.53,0.206 v 46.207 l -4.665,8.971 z m -15.738,0.004 9.671,-9.854 v -45.858 l 7.873,0.19 v 45.669 l -7.297,9.85 z m 51.294,-113.68 60.802,0.63 -60.802,50.033 z m -18.657,-0.194 13.166,0.137 v 53.406 l -8.748,-0.211 v -43.73 z m -16.763,-0.173 11.163,0.116 4.527,10.535 V -51.9 l -8.53,-0.206 v -42.515 z m -15.437,-0.16 9.857,0.103 7.25,11.146 v 41.945 l -7.873,-0.19 v -43.508 z m 134.1,5.718 -14.921,0.023 c 1.346,-2.548 4.183,-4.305 7.466,-4.305 3.274,0 6.105,1.746 7.455,4.282 m -7.455,10.999 c -3.769,0 -6.952,-2.315 -7.962,-5.486 l 15.931,-0.023 c -1.002,3.182 -4.191,5.509 -7.969,5.509 m -14.138,-9.04 c -0.054,0.46 -0.082,0.926 -0.082,1.4 0,6.754 5.557,12.314 12.689,13.018 l -43.26,32.662 -25.805,-0.623 z m 24.934,9.921 c 2.133,-2.29 3.423,-5.267 3.423,-8.521 0,-2.854 -0.991,-5.496 -2.674,-7.647 l 14.102,0.147 9.124,0.094 1.699,0.018 c 4.839,0.05 9.599,2.046 9.599,7.93 0,4.056 -3.569,7.935 -7.524,7.939 z m -1.43,5.488 c 0.055,0.003 0.11,0.005 0.166,0.005 l 26.891,-0.039 c 8.159,-0.013 15.243,-4.141 15.243,-13.433 0,-9.604 -7.395,-13.339 -15.664,-13.426 l -172.371,-1.784 c -1.507,-0.015 -2.744,1.207 -2.744,2.715 0,1.51 1.235,2.76 2.744,2.776 l 4.013,0.041 9.235,10.213 0.219,93.543 -9.774,10.512 -5.226,0.001 c -1.507,10e-4 -2.744,1.236 -2.744,2.746 0,1.51 1.234,2.745 2.744,2.745 L -3.104,14.232 c 0.25,0.009 0.499,0.009 0.748,0 l 25.337,-0.006 c 3.814,-0.001 5.968,0.29 9.265,-2.51 2.144,-1.821 3.492,-4.51 3.492,-7.767 0,-3.65 -2.191,-7.124 -5.428,-8.962 -1.991,-1.131 -4.709,-1.591 -7.024,-1.587 l -23.339,0.034 -50.579,-42.52 44.056,-33.26 z m -5.864,78.554 c -1.698,1.54 -2.79,3.508 -3.247,5.589 -0.671,1.767 0.647,3.71 2.568,3.708 L 1.863,5.488 C 1.494,6.634 0.712,7.662 -0.413,8.315 l -0.087,0.426 -12.437,0.003 -70.702,-54.553 29.08,0.702 47.161,39.646 c -0.699,0.409 -1.385,0.954 -2.084,1.669" /></g><g
           transform="translate(3.6193,74.0774)"
           id="g24"><path
             id="path26"
             style="fill:#004b26;fill-opacity:1;fill-rule:evenodd;stroke:none"
             d="m 0,0 c -0.422,-0.349 -1.123,-2.558 -0.613,-3.1 0.558,-0.594 2.764,-0.095 3.358,0.317 l 9.68,6.718 c 0.544,0.377 1.246,0.401 1.789,0.02 l 9.605,-6.743 c 0.593,-0.417 3.143,-0.407 3.532,-0.002 0.421,0.439 0.241,2.513 -0.463,3.073 l -12.464,9.938 c -0.616,0.491 -1.466,0.48 -2.074,-0.023 z m 0,-16.69 c -0.422,-0.35 -1.123,-2.558 -0.613,-3.101 0.558,-0.594 2.764,-0.095 3.358,0.317 l 9.68,6.719 c 0.544,0.377 1.246,0.401 1.789,0.02 l 9.605,-6.744 c 0.593,-0.417 3.143,-0.406 3.532,-0.001 0.421,0.438 0.241,2.512 -0.463,3.073 L 14.424,-6.47 c -0.616,0.492 -1.466,0.48 -2.074,-0.022 z m -3.619,-3.798 c -0.016,-0.756 0.262,-1.412 0.815,-1.927 0.553,-0.516 1.226,-0.747 1.979,-0.678 l 3.812,0.346 c 0.451,0.042 0.828,0.176 1.202,0.429 l 7.68,5.187 c 0.868,0.587 1.939,0.599 2.82,0.032 l 8.126,-5.226 c 0.437,-0.281 0.884,-0.411 1.405,-0.407 l 3.634,0.025 c 0.716,0.006 1.329,0.27 1.825,0.783 0.497,0.515 0.739,1.137 0.719,1.852 l -0.1,3.581 c -0.021,0.773 -0.345,1.43 -0.946,1.918 L 15.021,-2.935 c -0.966,0.785 -2.323,0.77 -3.272,-0.035 L -2.645,-15.182 c -0.58,-0.492 -0.888,-1.14 -0.903,-1.901 z m 11.145,-17.43 0.155,-3.017 c 0.07,-1.363 1.194,-2.431 2.56,-2.431 h 7.983 c 1.38,0 2.499,1.097 2.561,2.476 l 0.089,1.959 1.941,-1.248 c 0.437,-0.281 0.884,-0.411 1.405,-0.408 l 3.634,0.026 c 1.445,0.011 2.584,1.19 2.544,2.634 l -0.1,3.582 c -0.021,0.773 -0.345,1.43 -0.946,1.918 l -14.331,11.638 c -0.966,0.785 -2.323,0.77 -3.272,-0.035 L -2.645,-33.036 c -0.58,-0.492 -0.888,-1.14 -0.903,-1.901 l -0.071,-3.405 c -0.032,-1.536 1.263,-2.745 2.794,-2.606 l 3.812,0.347 c 0.451,0.041 0.828,0.176 1.202,0.429 z m 1.542,5.701 c -1.47,0 -1.716,-0.912 -1.723,-1.918 l -4.6,-3.193 c -0.594,-0.413 -2.8,-0.911 -3.358,-0.317 -0.51,0.542 0.191,2.751 0.613,3.1 l 12.35,10.198 c 0.608,0.503 1.458,0.515 2.074,0.023 l 12.464,-9.938 c 0.704,-0.56 0.884,-2.634 0.463,-3.072 -0.389,-0.406 -2.939,-0.416 -3.532,0.001 l -2.785,1.955 0.008,0.176 c 0.045,0.995 -0.053,2.942 -1.715,2.942 -1.661,0 -2.07,-1.553 -2.044,-2.625 l 0.058,-2.387 c 0.055,-2.282 0.38,-2.605 -2.638,-2.625 l -1.306,-0.008 c -2.723,-0.016 -2.387,0.28 -2.478,2.406 l -0.11,2.58 c -0.044,1.043 0.068,2.702 -1.741,2.702 m -12.687,28.42 0.071,3.405 c 0.015,0.761 0.323,1.409 0.903,1.901 l 14.394,12.212 c 0.949,0.805 2.306,0.82 3.272,0.035 L 29.352,2.118 C 29.953,1.63 30.277,0.973 30.298,0.2 l 0.1,-3.582 c 0.02,-0.714 -0.222,-1.337 -0.719,-1.851 -0.496,-0.514 -1.109,-0.778 -1.825,-0.783 L 24.22,-6.042 c -0.521,-0.003 -0.968,0.126 -1.405,0.408 l -8.126,5.225 C 13.808,0.158 12.737,0.146 11.869,-0.44 L 4.189,-5.627 C 3.815,-5.88 3.438,-6.015 2.987,-6.056 l -3.812,-0.347 c -0.753,-0.069 -1.426,0.163 -1.979,0.678 -0.553,0.516 -0.831,1.172 -0.815,1.928" /></g><g
           transform="translate(246.2668,74.9475)"
           id="g28"><path
             id="path30"
             style="fill:#004b26;fill-opacity:1;fill-rule:evenodd;stroke:none"
             d="m 0,0 c -0.423,-0.35 -1.124,-2.558 -0.613,-3.101 0.557,-0.593 2.763,-0.095 3.358,0.318 l 9.68,6.718 c 0.544,0.377 1.246,0.401 1.788,0.02 l 9.605,-6.744 c 0.594,-0.417 3.143,-0.406 3.533,-10e-4 0.42,0.439 0.241,2.512 -0.463,3.073 l -12.464,9.938 c -0.616,0.491 -1.467,0.48 -2.074,-0.023 z m 0,-16.691 c -0.423,-0.349 -1.124,-2.557 -0.613,-3.1 0.557,-0.594 2.763,-0.095 3.358,0.317 l 9.68,6.718 c 0.544,0.378 1.246,0.402 1.788,0.02 l 9.605,-6.743 c 0.594,-0.417 3.143,-0.407 3.533,-0.001 0.42,0.438 0.241,2.512 -0.463,3.073 L 14.424,-6.47 c -0.616,0.492 -1.467,0.48 -2.074,-0.022 z m -3.619,-3.797 c -0.016,-0.756 0.262,-1.413 0.814,-1.928 0.553,-0.515 1.227,-0.747 1.98,-0.678 l 3.811,0.347 c 0.452,0.041 0.828,0.176 1.202,0.429 l 7.68,5.187 c 0.868,0.586 1.94,0.599 2.82,0.031 l 8.126,-5.225 c 0.438,-0.282 0.885,-0.412 1.405,-0.408 l 3.635,0.026 c 0.715,0.005 1.329,0.269 1.825,0.783 0.497,0.514 0.738,1.136 0.718,1.851 l -0.099,3.581 c -0.022,0.774 -0.346,1.431 -0.946,1.919 L 15.021,-2.935 c -0.966,0.785 -2.324,0.77 -3.273,-0.035 L -2.645,-15.182 c -0.58,-0.492 -0.888,-1.14 -0.904,-1.901 z m 11.144,-17.431 0.156,-3.016 c 0.07,-1.363 1.194,-2.432 2.559,-2.432 h 7.984 c 1.38,0 2.498,1.097 2.56,2.477 l 0.089,1.959 1.941,-1.249 c 0.438,-0.281 0.885,-0.411 1.405,-0.407 l 3.635,0.026 c 1.445,0.01 2.583,1.189 2.543,2.634 l -0.099,3.581 c -0.022,0.773 -0.346,1.43 -0.946,1.918 L 15.021,-20.79 c -0.966,0.785 -2.324,0.77 -3.273,-0.035 L -2.645,-33.037 c -0.58,-0.491 -0.888,-1.14 -0.904,-1.901 l -0.07,-3.404 c -0.032,-1.537 1.263,-2.746 2.794,-2.606 l 3.811,0.347 c 0.452,0.041 0.828,0.175 1.202,0.429 z m 1.542,5.701 c -1.47,0 -1.715,-0.911 -1.722,-1.917 l -4.6,-3.193 c -0.595,-0.413 -2.801,-0.912 -3.358,-0.318 -0.511,0.543 0.19,2.751 0.613,3.101 l 12.35,10.198 c 0.607,0.503 1.458,0.514 2.074,0.023 l 12.464,-9.938 c 0.704,-0.561 0.883,-2.634 0.463,-3.073 -0.39,-0.405 -2.939,-0.415 -3.533,0.002 l -2.785,1.955 0.009,0.176 c 0.045,0.995 -0.054,2.942 -1.716,2.942 -1.661,0 -2.069,-1.554 -2.043,-2.625 l 0.058,-2.388 c 0.055,-2.281 0.38,-2.605 -2.639,-2.624 l -1.306,-0.008 c -2.722,-0.016 -2.387,0.28 -2.477,2.406 l -0.11,2.579 c -0.044,1.043 0.068,2.702 -1.742,2.702 m -12.686,28.421 0.07,3.404 c 0.016,0.761 0.324,1.41 0.904,1.901 L 11.748,13.72 c 0.949,0.805 2.307,0.82 3.273,0.035 L 29.352,2.117 c 0.6,-0.488 0.924,-1.144 0.946,-1.918 l 0.099,-3.581 c 0.02,-0.715 -0.221,-1.337 -0.718,-1.851 -0.496,-0.515 -1.11,-0.778 -1.825,-0.783 l -3.635,-0.026 c -0.52,-0.004 -0.967,0.125 -1.405,0.407 l -8.126,5.226 c -0.88,0.567 -1.952,0.555 -2.82,-0.031 L 4.188,-5.628 C 3.814,-5.881 3.438,-6.015 2.986,-6.056 l -3.811,-0.347 c -0.753,-0.069 -1.427,0.162 -1.98,0.678 -0.552,0.515 -0.83,1.171 -0.814,1.928" /></g></g></g></g></svg>