<?xml version="1.0" encoding="UTF-8" standalone="no"?>
<svg
   xmlns:dc="http://purl.org/dc/elements/1.1/"
   xmlns:cc="http://creativecommons.org/ns#"
   xmlns:rdf="http://www.w3.org/1999/02/22-rdf-syntax-ns#"
   xmlns:svg="http://www.w3.org/2000/svg"
   xmlns="http://www.w3.org/2000/svg"
   viewBox="0 0 188.93333 188.93333"
   height="188.93333"
   width="188.93333"
   xml:space="preserve"
   id="svg2"
   version="1.1"><metadata
     id="metadata8"><rdf:RDF><cc:Work
         rdf:about=""><dc:format>image/svg+xml</dc:format><dc:type
           rdf:resource="http://purl.org/dc/dcmitype/StillImage" /></cc:Work></rdf:RDF></metadata><defs
     id="defs6"><clipPath
       id="clipPath18"
       clipPathUnits="userSpaceOnUse"><path
         id="path16"
         d="M 0,141.7 H 141.7 V 0 H 0 Z" /></clipPath></defs><g
     transform="matrix(1.3333333,0,0,-1.3333333,0,188.93333)"
     id="g10"><g
       id="g12"><g
         clip-path="url(#clipPath18)"
         id="g14"><g
           transform="translate(49.1,141.7001)"
           id="g20"><path
             id="path22"
             style="fill:#4680c2;fill-opacity:1;fill-rule:nonzero;stroke:none"
             d="m 0,0 h 43.5 c 39.7,0 49.1,-9.4 49.1,-49.1 v -43.5 c 0,-39.7 -9.4,-49.1 -49.1,-49.1 H 0 c -39.7,0 -49.1,9.4 -49.1,49.1 v 43.5 C -49.1,-9.4 -39.7,0 0,0" /></g><g
           transform="translate(116.0004,92.8998)"
           id="g24"><path
             id="path26"
             style="fill:#ffffff;fill-opacity:1;fill-rule:nonzero;stroke:none"
             d="M 0,0 C 0.699,2.2 0,3.8 -3.101,3.8 H -13.4 c -2.6,0 -3.8,-1.4 -4.5,-2.9 0,0 -5.3,-12.8 -12.701,-21.1 -2.399,-2.4 -3.5,-3.199 -4.799,-3.199 -0.701,0 -1.6,0.799 -1.6,2.999 V 0.1 c 0,2.6 -0.801,3.8 -3,3.8 h -16.2 c -1.6,0 -2.6,-1.2 -2.6,-2.4 0,-2.5 3.699,-3.1 4.1,-10.1 v -15.2 c 0,-3.3 -0.6,-3.9 -1.901,-3.9 -3.5,0 -12,12.9 -17.099,27.6 -1,2.9 -2,4 -4.6,4 h -10.4 c -3,0 -3.5,-1.4 -3.5,-2.9 0,-2.7 3.5,-16.3 16.3,-34.3 8.5,-12.3 20.6,-18.9 31.5,-18.9 6.599,0 7.4,1.5 7.4,4 v 9.301 c 0,3 0.6,3.5 2.699,3.5 1.5,0 4.2,-0.801 10.301,-6.701 7,-7 8.199,-10.2 12.1,-10.2 h 10.299 c 3,0 4.401,1.5 3.601,4.401 -0.9,2.899 -4.301,7.099 -8.7,12.099 -2.401,2.8 -6,5.901 -7.101,7.401 -1.5,2 -1.099,2.799 0,4.599 C -13.9,-23.8 -1.301,-6 0,0" /></g></g></g></g></svg>